<?xml version="1.0" encoding="utf-8"?>
<!-- Generator: Adobe Illustrator 18.1.0, SVG Export Plug-In . SVG Version: 6.00 Build 0)  -->
<svg version="1.1" id="Layer_1" xmlns="http://www.w3.org/2000/svg" xmlns:xlink="http://www.w3.org/1999/xlink" x="0px" y="0px"
	 viewBox="0 0 70 70" enable-background="new 0 0 70 70" xml:space="preserve">
<g>
	<g>
		<path fill="#333333" d="M59.3,35c0-3.3-4-5.7-9.5-7.1c3.1-5.8,4.5-10.8,2.6-13.1c-0.4-0.5-1.2-1.1-2.6-1.1
			c-3.3,0-8.7,3.6-14.4,9.3c-5.7-5.7-11.1-9.3-14.4-9.3c-1.4,0-2.2,0.6-2.6,1.1c-1.9,2.3-0.5,7.4,2.6,13.1c-5.6,1.5-9.5,3.9-9.5,7.1
			s4,5.7,9.5,7.1c-3.1,5.8-4.5,10.8-2.6,13.1c0.4,0.5,1.2,1.1,2.6,1.1c3.3,0,8.7-3.6,14.4-9.3c5.7,5.7,11.1,9.3,14.4,9.3
			c1.4,0,2.2-0.6,2.6-1.1c1.9-2.3,0.5-7.4-2.6-13.1C55.3,40.7,59.3,38.3,59.3,35z M49.7,15.6c0.7,0,0.9,0.2,1.1,0.4
			c1.2,1.4,0,5.7-3,11.4c-2.9-0.6-6.1-1-9.3-1.2c-0.6-0.7-1.2-1.3-1.7-1.9C42.4,18.6,47.3,15.6,49.7,15.6z M39.1,39.9
			c-0.5,0.7-1.1,1.3-1.6,1.9c-0.7,0-1.5,0-2.2,0s-1.5,0-2.2,0c-0.5-0.6-1.1-1.2-1.6-1.9c-1.4-1.7-2.6-3.3-3.8-4.9
			c1.2-1.6,2.4-3.2,3.8-4.9c0.5-0.7,1.1-1.3,1.6-1.9c0.7,0,1.5,0,2.2,0c0.8,0,1.5,0,2.2,0c0.5,0.6,1.1,1.2,1.6,1.9
			c1.4,1.7,2.6,3.3,3.8,4.9C41.7,36.6,40.5,38.2,39.1,39.9z M44.1,36.7c1,1.4,1.8,2.8,2.6,4.1c-1.9,0.4-4.1,0.7-6.5,0.9
			c0.1-0.2,0.3-0.3,0.4-0.5C41.8,39.7,43,38.2,44.1,36.7z M35.6,43.8c-0.1,0.1-0.2,0.3-0.4,0.4c-0.1-0.1-0.2-0.3-0.4-0.4
			c0.1,0,0.2,0,0.4,0C35.4,43.8,35.5,43.8,35.6,43.8z M30.3,41.7c-2.3-0.2-4.5-0.5-6.5-0.9c0.8-1.3,1.6-2.7,2.6-4.1
			c1.1,1.5,2.3,3,3.5,4.5C30,41.3,30.2,41.5,30.3,41.7z M26.4,33.3c-1-1.4-1.8-2.8-2.6-4.1c1.9-0.4,4.1-0.7,6.5-0.9
			c-0.1,0.2-0.3,0.3-0.4,0.5C28.7,30.3,27.5,31.8,26.4,33.3z M34.9,26.2c0.1-0.1,0.2-0.3,0.4-0.4c0.1,0.1,0.2,0.3,0.4,0.4
			c-0.1,0-0.2,0-0.4,0C35.1,26.2,35,26.2,34.9,26.2z M40.6,28.8c-0.1-0.2-0.3-0.3-0.4-0.5c2.3,0.2,4.5,0.5,6.5,0.9
			c-0.8,1.3-1.6,2.7-2.6,4.1C43,31.8,41.8,30.3,40.6,28.8z M19.8,16c0.1-0.2,0.4-0.4,1.1-0.4c2.4,0,7.3,3,13,8.7
			c-0.6,0.6-1.2,1.2-1.7,1.9c-3.2,0.2-6.4,0.5-9.3,1.2C19.7,21.7,18.6,17.4,19.8,16z M13.3,35c0-1.9,3.2-4,8.6-5.3
			c1,1.8,2.2,3.5,3.4,5.3c-1.2,1.8-2.4,3.6-3.4,5.3C16.5,39,13.3,36.9,13.3,35z M20.9,54.4c-0.7,0-0.9-0.2-1.1-0.4
			c-1.2-1.4,0-5.7,3-11.4c2.9,0.6,6.1,1,9.3,1.2c0.6,0.7,1.2,1.3,1.7,1.9C28.1,51.4,23.2,54.4,20.9,54.4z M50.7,54
			c-0.1,0.1-0.3,0.4-1.1,0.4c-2.4,0-7.3-3-13-8.7c0.6-0.6,1.2-1.2,1.7-1.9c3.2-0.2,6.4-0.5,9.3-1.2C50.8,48.3,51.9,52.6,50.7,54z
			 M48.7,40.3c-1-1.8-2.2-3.6-3.4-5.3c1.2-1.8,2.4-3.6,3.4-5.3c5.3,1.3,8.6,3.4,8.6,5.3C57.3,36.9,54,39,48.7,40.3z"/>
	</g>
</g>
</svg>
